<svg version="1.1" id="logo" xmlns="http://www.w3.org/2000/svg" xmlns:xlink="http://www.w3.org/1999/xlink" x="0px" y="0px"
	 width="380px" height="60px" viewBox="-0.75 0 380 60" enable-background="new -0.75 0 380 60" xml:space="preserve">
<g id="circle">
	<g>
		<polygon class="item" points="14.606,39.247 20.503,39.247 28.632,17.054 22.736,17.054 		"/>
		<path class="item" d="M37.644,8.787l-1.917,5.205c5.88,3.367,9.847,9.703,9.847,16.966c0,10.791-8.752,19.548-19.547,19.548
			S6.479,41.749,6.479,30.958c0-10.792,8.752-19.549,19.548-19.549c1.569,0,3.094,0.192,4.556,0.543l1.907-5.176
			c-2.062-0.547-4.227-0.843-6.463-0.843C12.206,5.933,1,17.135,1,30.958C1,44.78,12.206,55.984,26.025,55.984
			c13.823,0,25.026-11.204,25.026-25.026C51.052,21.333,45.616,12.978,37.644,8.787z"/>
		<polygon class="item" points="26.51,39.247 32.404,39.247 37.48,25.351 31.584,25.351 		"/>
	</g>
</g>
<g id="text">
	<path class="item" d="M71.073,39.624c-0.5,0-0.92-0.029-1.367-0.111l-0.919,2.706l-3.125-0.978l0.891-2.595
		c-2.817-1.478-4.128-4.604-4.128-8.565c0-6.141,4.157-10.018,9.347-10.018c0.364,0,0.727,0.028,1.117,0.083l0.865-2.567
		l3.153,0.948l-0.838,2.429c2.624,1.283,4.381,3.99,4.381,8.622C80.45,35.772,76.376,39.624,71.073,39.624z M70.265,24.108
		c-1.926,0.475-3.432,2.345-3.432,5.609c0,2.036,0.418,3.57,1.228,4.436l3.572-10.213C71.187,23.94,70.739,23.97,70.265,24.108z
		 M74.62,25.225l-3.657,10.492c0.334,0.056,0.669,0.056,1.033,0.028c2.036-0.279,4.046-2.01,4.046-5.916
		C76.042,27.819,75.567,26.118,74.62,25.225z"/>
	<path class="item" d="M85.528,39.568c-1.088,0-2.176-0.14-3.068-0.391l0.223-3.461c0.835,0.363,1.868,0.558,2.901,0.558
		c1.062,0,1.701-0.419,1.701-1.088c0-2.036-5.105-0.893-5.105-5.498c0-2.54,1.896-4.631,6.138-4.631c0.753,0,1.646,0.11,2.428,0.25
		l-0.14,3.322c-0.697-0.252-1.591-0.364-2.4-0.364c-1.087,0-1.59,0.419-1.59,1.061c0,1.842,5.19,1.06,5.19,5.496
		C91.807,37.752,89.295,39.568,85.528,39.568z"/>
	<path class="item" d="M99.256,39.568c-3.208,0-4.241-1.062-4.241-4.466v-6.446h-2.092v-3.264h2.092v-4.102l4.27-1.145v5.247
		h2.985v3.264h-2.985v5.468c0,1.424,0.364,1.898,1.423,1.898c0.503,0,0.978-0.084,1.451-0.195l0.251,3.321
		C101.461,39.399,100.262,39.568,99.256,39.568z"/>
	<path class="item" d="M113.236,22.323c-0.502-0.167-1.061-0.25-1.535-0.25c-1.283,0-1.869,0.613-1.869,2.092v1.229h2.845v3.264
		h-2.845v10.604h-4.241V28.657h-2.121v-3.264h2.121v-1.2c0-3.683,1.646-5.552,5.69-5.552c0.728,0,1.507,0.055,2.234,0.222
		L113.236,22.323z"/>
	<path class="item" d="M120.241,39.568c-4.018,0-6.668-1.982-6.668-6.922c0-4.519,3.098-7.562,7.339-7.562
		c4.213,0,6.639,2.344,6.639,6.948C127.552,36.525,124.426,39.568,120.241,39.568z M120.634,28.713c-1.341,0-2.653,1.032-2.653,3.46
		c0,2.539,0.811,3.711,2.568,3.711c1.533,0,2.595-1.283,2.595-3.6C123.144,29.913,122.39,28.713,120.634,28.713z"/>
	<path class="item" d="M130.009,39.261v-20.37h4.241v20.37H130.009z"/>
	<path class="item" d="M145.94,39.261c0-0.586,0.028-1.284,0.142-1.982h-0.057c-0.753,1.341-2.149,2.316-4.214,2.316
		c-3.349,0-5.05-2.538-5.05-6.501c0-4.548,2.706-7.981,7.451-7.981c0.474,0,0.948,0.028,1.396,0.085v-6.307h4.242v20.37H145.94z
		 M145.607,28.657c-0.475-0.111-0.948-0.167-1.452-0.167c-1.647,0-2.903,1.06-2.903,4.157c0,2.317,0.614,3.405,1.926,3.405
		c1.423,0,2.429-1.674,2.429-3.99V28.657z"/>
	<path class="item" d="M166.7,39.624c-5.999,0-7.449-3.237-7.449-7.006V20.425h4.352v11.943c0,2.205,0.699,3.601,3.378,3.601
		c2.455,0,3.403-1.033,3.403-3.851V20.425h4.297v11.441C174.681,37.169,171.697,39.624,166.7,39.624z"/>
	<path class="item" d="M186.291,39.261v-8.818c0-1.115-0.309-1.786-1.285-1.786c-1.508,0-2.763,1.871-2.763,3.878v6.726h-4.24
		V25.393h3.963c0,0.528-0.031,1.506-0.169,2.176l0.028,0.028c0.864-1.451,2.399-2.512,4.604-2.512c3.098,0,4.104,2.009,4.104,4.41
		v9.766H186.291z"/>
	<path class="item" d="M195.973,23.775c-1.425,0-2.597-1.117-2.597-2.513c0-1.367,1.172-2.512,2.597-2.512
		c1.449,0,2.62,1.118,2.62,2.512C198.593,22.658,197.422,23.775,195.973,23.775z M193.852,39.261V25.393h4.24v13.868H193.852z"/>
	<path class="item" d="M209.17,39.261h-4.325l-5.107-13.868h4.66l1.703,4.909c0.361,1.034,0.725,2.316,1.005,3.377h0.055
		c0.224-1.033,0.53-2.204,0.894-3.237l1.7-5.049h4.522L209.17,39.261z"/>
	<path class="item" d="M227.108,33.4h-8.259c0.028,1.815,1.143,2.874,3.432,2.874c1.34,0,2.736-0.277,4.074-0.864l0.418,3.209
		c-1.589,0.642-3.487,0.949-5.19,0.949c-4.52,0-7.03-2.206-7.03-7.088c0-4.27,2.372-7.422,6.669-7.422
		c4.186,0,6.026,2.818,6.026,6.446C227.248,32.089,227.193,32.703,227.108,33.4z M221.11,28.155c-1.228,0-2.121,0.976-2.261,2.427
		h4.216C223.12,28.992,222.336,28.155,221.11,28.155z"/>
	<path class="item" d="M237.631,29.271c-2.316-0.529-3.544,0.811-3.544,4.271v5.72h-4.242V25.393h3.964
		c0,0.586-0.057,1.591-0.197,2.455h0.055c0.727-1.646,2.038-2.902,4.159-2.79L237.631,29.271z"/>
	<path class="item" d="M242.427,39.568c-1.088,0-2.176-0.14-3.069-0.391l0.226-3.461c0.836,0.363,1.869,0.558,2.9,0.558
		c1.062,0,1.703-0.419,1.703-1.088c0-2.036-5.106-0.893-5.106-5.498c0-2.54,1.897-4.631,6.14-4.631c0.753,0,1.646,0.11,2.428,0.25
		l-0.141,3.322c-0.698-0.252-1.591-0.364-2.398-0.364c-1.088,0-1.592,0.419-1.592,1.061c0,1.842,5.19,1.06,5.19,5.496
		C248.707,37.752,246.193,39.568,242.427,39.568z"/>
	<path class="item" d="M253.364,23.775c-1.42,0-2.594-1.117-2.594-2.513c0-1.367,1.174-2.512,2.594-2.512
		c1.452,0,2.625,1.118,2.625,2.512C255.989,22.658,254.816,23.775,253.364,23.775z M251.246,39.261V25.393h4.239v13.868H251.246z"/>
	<path class="item" d="M263.719,39.568c-3.209,0-4.242-1.062-4.242-4.466v-6.446h-2.093v-3.264h2.093v-4.102l4.269-1.145v5.247
		h2.987v3.264h-2.987v5.468c0,1.424,0.363,1.898,1.425,1.898c0.501,0,0.977-0.084,1.449-0.195l0.251,3.321
		C265.923,39.399,264.724,39.568,263.719,39.568z"/>
	<path class="item" d="M276.721,39.791c-1.897,5.022-4.019,6.306-7.254,6.306c-0.644,0-1.563-0.083-2.149-0.196l0.475-3.627
		c0.559,0.169,1.229,0.279,1.841,0.279c0.977,0,2.233-0.445,2.819-2.26l0.335-1.032l-5.023-13.868h4.688l1.395,4.046
		c0.418,1.172,0.81,2.705,1.116,4.046h0.028c0.333-1.396,0.92-3.322,1.312-4.465l1.254-3.627h4.549L276.721,39.791z"/>
	<path class="item" d="M297.899,39.513c-6.948,0-8.817-4.718-8.817-8.985c0-6.112,3.318-10.241,9.542-10.241
		c1.312,0,2.707,0.167,3.853,0.53l-0.559,3.962c-1.06-0.391-2.206-0.586-3.378-0.586c-3.04,0-4.687,2.203-4.687,5.608
		c0,3.712,1.506,5.748,4.91,5.748c0.977,0,2.316-0.25,3.209-0.697l0.615,3.852C301.248,39.205,299.517,39.513,297.899,39.513z"/>
	<path class="item" d="M310.593,39.568c-4.017,0-6.67-1.982-6.67-6.922c0-4.519,3.098-7.562,7.34-7.562
		c4.212,0,6.642,2.344,6.642,6.948C317.904,36.525,314.778,39.568,310.593,39.568z M310.982,28.713c-1.338,0-2.65,1.032-2.65,3.46
		c0,2.539,0.81,3.711,2.567,3.711c1.534,0,2.596-1.283,2.596-3.6C313.495,29.913,312.74,28.713,310.982,28.713z"/>
	<path class="item" d="M320.357,39.261v-20.37h4.242v20.37H320.357z"/>
	<path class="item" d="M327.921,39.261v-20.37h4.244v20.37H327.921z"/>
	<path class="item" d="M347.229,33.4h-8.259c0.028,1.815,1.143,2.874,3.432,2.874c1.34,0,2.734-0.277,4.074-0.864l0.42,3.209
		c-1.589,0.642-3.489,0.949-5.192,0.949c-4.52,0-7.03-2.206-7.03-7.088c0-4.27,2.372-7.422,6.669-7.422
		c4.186,0,6.026,2.818,6.026,6.446C347.369,32.089,347.314,32.703,347.229,33.4z M341.231,28.155c-1.228,0-2.123,0.976-2.261,2.427
		h4.214C343.241,28.992,342.46,28.155,341.231,28.155z"/>
	<path class="item" d="M355.182,46.181c-3.796,0-6.026-1.367-6.026-4.129c0-1.312,0.948-2.68,2.01-3.237
		c-0.81-0.392-1.342-1.173-1.342-2.148c0-1.117,0.729-2.178,1.703-2.567c-1.254-0.67-2.093-1.954-2.093-3.74
		c0-2.845,2.093-5.3,6.309-5.3c0.948,0,1.646,0.14,2.426,0.335h4.715v3.348h-1.59c0.25,0.279,0.393,0.725,0.393,1.227
		c0,3.014-2.01,4.967-6,4.967c-0.307,0-0.53-0.027-0.839-0.084c-0.332,0.167-0.501,0.476-0.501,0.697c0,0.587,0.418,0.67,1.98,0.726
		l1.87,0.085c2.985,0.11,4.771,1.338,4.771,4.129C362.968,43.502,359.954,46.181,355.182,46.181z M357.022,39.595l-2.204-0.057
		c-0.166-0.025-0.39,0-0.529-0.025c-0.613,0.501-0.977,1.115-0.977,1.729c0,1.032,0.922,1.73,2.484,1.73
		c1.981,0,2.985-0.837,2.985-1.925C358.782,40.267,358.308,39.651,357.022,39.595z M355.573,28.127
		c-1.312,0-2.066,0.809-2.066,1.954c0,1.228,0.698,1.98,2.096,1.98c1.282,0,2.063-0.726,2.063-1.924
		C357.666,28.936,356.968,28.127,355.573,28.127z"/>
	<path class="item" d="M376.778,33.4h-8.259c0.025,1.815,1.143,2.874,3.432,2.874c1.338,0,2.734-0.277,4.074-0.864l0.418,3.209
		c-1.592,0.642-3.489,0.949-5.19,0.949c-4.52,0-7.03-2.206-7.03-7.088c0-4.27,2.37-7.422,6.667-7.422
		c4.186,0,6.026,2.818,6.026,6.446C376.916,32.089,376.861,32.703,376.778,33.4z M370.778,28.155c-1.229,0-2.119,0.976-2.259,2.427
		h4.211C372.787,28.992,372.006,28.155,370.778,28.155z"/>
</g>
</svg>