<svg version="1.1" id="logo-alternative" xmlns="http://www.w3.org/2000/svg" xmlns:xlink="http://www.w3.org/1999/xlink" x="0px"
	 y="0px" width="315px" height="90px" viewBox="0 0 315 90" enable-background="new 0 0 315 90" xml:space="preserve">
<g class="item" id="circle">
	<polygon points="146.427,37.462 152.441,37.462 160.736,14.822 154.721,14.822 	"/>
	<path d="M169.929,6.388l-1.955,5.31c6,3.436,10.045,9.899,10.045,17.308c0,11.008-8.928,19.943-19.94,19.943
		c-11.014,0-19.941-8.933-19.941-19.943c0-11.012,8.927-19.943,19.941-19.943c1.602,0,3.156,0.195,4.647,0.553l1.941-5.281
		c-2.103-0.558-4.312-0.86-6.593-0.86c-14.101,0-25.53,11.429-25.53,25.531s11.432,25.531,25.53,25.531
		c14.103,0,25.529-11.43,25.529-25.531C183.607,19.187,178.062,10.663,169.929,6.388z"/>
	<polygon points="158.57,37.462 164.584,37.462 169.763,23.287 163.746,23.287 	"/>
</g>
<g class="item" id="text">
	<path d="M8.648,83.441c-0.5,0-0.92-0.027-1.367-0.109l-0.919,2.705l-3.125-0.979l0.891-2.595C1.311,80.984,0,77.859,0,73.898
		C0,67.757,4.157,63.88,9.347,63.88c0.364,0,0.727,0.028,1.117,0.084l0.865-2.567l3.153,0.949l-0.838,2.428
		c2.624,1.283,4.381,3.99,4.381,8.623C18.025,79.59,13.951,83.441,8.648,83.441z M7.84,67.926c-1.926,0.477-3.432,2.346-3.432,5.609
		c0,2.035,0.418,3.57,1.228,4.436l3.572-10.213C8.762,67.758,8.314,67.789,7.84,67.926z M12.195,69.043L8.538,79.535
		c0.334,0.057,0.669,0.057,1.033,0.027c2.036-0.278,4.046-2.011,4.046-5.916C13.617,71.637,13.142,69.938,12.195,69.043z"/>
	<path d="M23.103,83.387c-1.088,0-2.176-0.141-3.068-0.392l0.223-3.461c0.835,0.362,1.868,0.558,2.901,0.558
		c1.062,0,1.701-0.418,1.701-1.088c0-2.035-5.105-0.893-5.105-5.498c0-2.539,1.896-4.631,6.138-4.631
		c0.753,0,1.646,0.109,2.428,0.25l-0.14,3.322c-0.697-0.252-1.591-0.363-2.4-0.363c-1.087,0-1.59,0.418-1.59,1.061
		c0,1.842,5.19,1.061,5.19,5.496C29.382,81.57,26.87,83.387,23.103,83.387z"/>
	<path d="M36.831,83.387c-3.208,0-4.241-1.062-4.241-4.467v-6.445h-2.092v-3.264h2.092v-4.104l4.27-1.146v5.248h2.985v3.265H36.86
		v5.467c0,1.425,0.364,1.897,1.423,1.897c0.503,0,0.978-0.084,1.451-0.194l0.251,3.321C39.036,83.217,37.837,83.387,36.831,83.387z"
		/>
	<path d="M50.811,66.143c-0.502-0.168-1.061-0.25-1.535-0.25c-1.283,0-1.869,0.611-1.869,2.092v1.229h2.845v3.264h-2.845V83.08
		h-4.241V72.477h-2.121v-3.266h2.121v-1.199c0-3.684,1.646-5.553,5.69-5.553c0.728,0,1.507,0.055,2.234,0.223L50.811,66.143z"/>
	<path d="M57.816,83.387c-4.018,0-6.668-1.982-6.668-6.922c0-4.52,3.098-7.562,7.339-7.562c4.213,0,6.639,2.345,6.639,6.949
		C65.127,80.344,62.001,83.387,57.816,83.387z M58.209,72.531c-1.341,0-2.653,1.031-2.653,3.46c0,2.538,0.811,3.711,2.568,3.711
		c1.533,0,2.595-1.282,2.595-3.601C60.719,73.73,59.965,72.531,58.209,72.531z"/>
	<path d="M67.584,83.079v-20.37h4.241v20.37H67.584z"/>
	<path d="M83.515,83.079c0-0.586,0.028-1.284,0.142-1.981H83.6c-0.753,1.342-2.149,2.316-4.214,2.316
		c-3.349,0-5.05-2.539-5.05-6.502c0-4.548,2.706-7.98,7.451-7.98c0.474,0,0.948,0.027,1.396,0.086v-6.309h4.242v20.37H83.515z
		 M83.182,72.477c-0.475-0.111-0.948-0.168-1.452-0.168c-1.647,0-2.903,1.061-2.903,4.156c0,2.317,0.614,3.405,1.926,3.405
		c1.423,0,2.429-1.675,2.429-3.989V72.477z"/>
	<path d="M104.275,83.441c-5.999,0-7.449-3.236-7.449-7.006V64.243h4.352v11.942c0,2.205,0.699,3.602,3.378,3.602
		c2.455,0,3.403-1.033,3.403-3.852V64.243h4.297v11.44C112.256,80.986,109.272,83.441,104.275,83.441z"/>
	<path d="M123.866,83.079v-8.817c0-1.115-0.309-1.785-1.285-1.785c-1.508,0-2.763,1.869-2.763,3.877v6.727h-4.24V69.211h3.963
		c0,0.528-0.031,1.506-0.169,2.176l0.028,0.029c0.864-1.451,2.399-2.514,4.604-2.514c3.098,0,4.104,2.01,4.104,4.41v9.767H123.866z"
		/>
	<path d="M133.548,67.594c-1.425,0-2.597-1.117-2.597-2.514c0-1.367,1.172-2.512,2.597-2.512c1.449,0,2.62,1.117,2.62,2.512
		C136.168,66.477,134.997,67.594,133.548,67.594z M131.427,83.079V69.211h4.24v13.868H131.427L131.427,83.079z"/>
	<path d="M146.745,83.079h-4.324l-5.107-13.868h4.66l1.703,4.909c0.36,1.034,0.725,2.315,1.004,3.378h0.056
		c0.224-1.033,0.53-2.205,0.894-3.238l1.7-5.049h4.522L146.745,83.079z"/>
	<path d="M164.682,77.219h-8.258c0.027,1.814,1.143,2.873,3.432,2.873c1.34,0,2.736-0.275,4.074-0.863l0.418,3.209
		c-1.59,0.643-3.486,0.949-5.189,0.949c-4.521,0-7.03-2.207-7.03-7.088c0-4.271,2.372-7.422,6.67-7.422
		c4.187,0,6.024,2.816,6.024,6.445C164.822,75.907,164.768,76.521,164.682,77.219z M158.684,71.973c-1.228,0-2.121,0.978-2.26,2.428
		h4.215C160.695,72.811,159.91,71.973,158.684,71.973z"/>
	<path d="M175.205,73.09c-2.315-0.529-3.543,0.811-3.543,4.271v5.72h-4.241v-13.87h3.963c0,0.586-0.058,1.592-0.196,2.455h0.055
		c0.729-1.646,2.039-2.902,4.16-2.789L175.205,73.09z"/>
	<path d="M180.002,83.387c-1.088,0-2.176-0.141-3.069-0.392l0.228-3.461c0.836,0.362,1.869,0.558,2.899,0.558
		c1.062,0,1.703-0.418,1.703-1.088c0-2.035-5.106-0.893-5.106-5.498c0-2.539,1.897-4.631,6.141-4.631
		c0.754,0,1.646,0.109,2.428,0.25l-0.141,3.322c-0.697-0.252-1.592-0.363-2.398-0.363c-1.088,0-1.592,0.418-1.592,1.061
		c0,1.842,5.189,1.061,5.189,5.496C186.281,81.57,183.768,83.387,180.002,83.387z"/>
	<path d="M190.938,67.594c-1.42,0-2.594-1.117-2.594-2.514c0-1.367,1.174-2.512,2.594-2.512c1.453,0,2.625,1.117,2.625,2.512
		C193.562,66.477,192.391,67.594,190.938,67.594z M188.82,83.079V69.211h4.238v13.868H188.82L188.82,83.079z"/>
	<path d="M201.294,83.387c-3.209,0-4.242-1.062-4.242-4.467v-6.445h-2.093v-3.264h2.093v-4.104l4.271-1.146v5.248h2.985v3.265
		h-2.985v5.467c0,1.425,0.362,1.897,1.424,1.897c0.502,0,0.979-0.084,1.449-0.194l0.252,3.321
		C203.498,83.217,202.3,83.387,201.294,83.387z"/>
	<path d="M214.296,83.609c-1.896,5.021-4.019,6.307-7.254,6.307c-0.644,0-1.562-0.084-2.148-0.197l0.476-3.627
		c0.559,0.17,1.229,0.279,1.841,0.279c0.978,0,2.233-0.445,2.819-2.26l0.334-1.032l-5.021-13.868h4.688l1.396,4.047
		c0.418,1.172,0.812,2.705,1.116,4.045h0.027c0.334-1.396,0.92-3.32,1.312-4.465l1.254-3.627h4.549L214.296,83.609z"/>
	<path d="M235.473,83.332c-6.947,0-8.816-4.719-8.816-8.986c0-6.111,3.318-10.24,9.543-10.24c1.312,0,2.707,0.168,3.853,0.529
		l-0.56,3.963c-1.061-0.391-2.205-0.586-3.377-0.586c-3.041,0-4.688,2.203-4.688,5.607c0,3.713,1.506,5.748,4.91,5.748
		c0.977,0,2.314-0.25,3.209-0.697l0.613,3.854C238.822,83.023,237.093,83.332,235.473,83.332z"/>
	<path d="M248.168,83.387c-4.018,0-6.67-1.982-6.67-6.922c0-4.52,3.098-7.562,7.34-7.562c4.212,0,6.643,2.345,6.643,6.949
		C255.479,80.344,252.354,83.387,248.168,83.387z M248.557,72.531c-1.339,0-2.65,1.031-2.65,3.46c0,2.538,0.811,3.711,2.567,3.711
		c1.533,0,2.597-1.282,2.597-3.601C251.07,73.73,250.314,72.531,248.557,72.531z"/>
	<path d="M257.932,83.079v-20.37h4.241v20.37H257.932z"/>
	<path d="M265.496,83.079v-20.37h4.244v20.37H265.496z"/>
	<path d="M284.804,77.219h-8.259c0.027,1.814,1.145,2.873,3.434,2.873c1.34,0,2.732-0.275,4.072-0.863l0.421,3.209
		c-1.59,0.643-3.489,0.949-5.192,0.949c-4.521,0-7.029-2.207-7.029-7.088c0-4.271,2.371-7.422,6.669-7.422
		c4.187,0,6.026,2.816,6.026,6.445C284.943,75.907,284.889,76.521,284.804,77.219z M278.806,71.973
		c-1.229,0-2.123,0.978-2.262,2.428h4.214C280.816,72.811,280.035,71.973,278.806,71.973z"/>
	<path d="M292.757,90c-3.796,0-6.024-1.367-6.024-4.13c0-1.312,0.946-2.681,2.01-3.237c-0.811-0.392-1.342-1.172-1.342-2.146
		c0-1.117,0.729-2.178,1.703-2.567c-1.255-0.67-2.095-1.953-2.095-3.739c0-2.845,2.095-5.3,6.31-5.3c0.948,0,1.646,0.14,2.426,0.334
		h4.716v3.349h-1.591c0.25,0.278,0.395,0.726,0.395,1.229c0,3.014-2.011,4.967-6,4.967c-0.308,0-0.529-0.027-0.84-0.084
		c-0.332,0.166-0.501,0.477-0.501,0.696c0,0.587,0.418,0.671,1.979,0.726l1.871,0.086c2.983,0.109,4.771,1.338,4.771,4.129
		C300.543,87.32,297.529,90,292.757,90z M294.597,83.414l-2.204-0.059c-0.166-0.023-0.391,0-0.529-0.023
		c-0.612,0.5-0.977,1.113-0.977,1.729c0,1.031,0.922,1.73,2.482,1.73c1.981,0,2.986-0.838,2.986-1.926
		C296.357,84.086,295.883,83.469,294.597,83.414z M293.148,71.945c-1.312,0-2.066,0.809-2.066,1.953
		c0,1.229,0.697,1.979,2.096,1.979c1.282,0,2.062-0.726,2.062-1.924C295.24,72.754,294.543,71.945,293.148,71.945z"/>
	<path d="M314.354,77.219h-8.261c0.024,1.814,1.144,2.873,3.433,2.873c1.338,0,2.733-0.275,4.074-0.863l0.418,3.209
		c-1.593,0.643-3.488,0.949-5.189,0.949c-4.521,0-7.03-2.207-7.03-7.088c0-4.271,2.37-7.422,6.667-7.422
		c4.188,0,6.025,2.816,6.025,6.445C314.49,75.907,314.436,76.521,314.354,77.219z M308.354,71.973c-1.229,0-2.119,0.978-2.261,2.428
		h4.212C310.361,72.811,309.581,71.973,308.354,71.973z"/>
</g>
</svg>
