<?xml version="1.0" encoding="utf-8"?>
<!-- Generator: Adobe Illustrator 16.0.4, SVG Export Plug-In . SVG Version: 6.00 Build 0)  -->
<!DOCTYPE svg PUBLIC "-//W3C//DTD SVG 1.1//EN" "http://www.w3.org/Graphics/SVG/1.1/DTD/svg11.dtd">
<svg version="1.1" id="Layer_1" xmlns="http://www.w3.org/2000/svg" xmlns:xlink="http://www.w3.org/1999/xlink" x="0px" y="0px"
	 width="30px" height="30px" viewBox="0 0 30 30" enable-background="new 0 0 30 30" xml:space="preserve">
<path id="icon-person" fill-rule="evenodd" clip-rule="evenodd" fill="none" d="M20.637,23.109c-1.282-0.33-2.381-1.021-2.381-1.021
	l-0.426-1.578c0-0.068-0.067-1.07-0.067-1.07c0.952-0.32,0.854-2.203,0.854-2.203c0.604,0.334,0.997-1.635,0.997-1.635
	c1.023-2.552-0.354-1.944-0.354-1.944c0.34-1.549,0.758-1.504,0.758-3.407c0-1.902-2.888-3.567-4.816-3.567
	c-1.929,0-4.661,1.719-4.661,3.567s0.519,3.407,0.519,3.407c-1.76,0-0.03,1.382,0,2.187c0.044,1.188,0.771,1.423,0.771,1.423
	c0.046,1.959,0.532,2.217,0.532,2.217c0.181,1.23,0,1.124,0,1.124l-0.312,1.441c0,0-0.817,0.589-1.824,1.028
	c-0.623,0.272-1.297,0.069-1.931,0.322C6.029,21.375,4.6,18.437,4.6,15.171C4.6,9.077,9.089,4.6,15.2,4.6
	c6.111,0,10.6,4.478,10.6,10.571c0.001,3.132-1.313,5.96-3.419,7.974C22.381,23.145,21.21,23.257,20.637,23.109z M3,15
	c0,6.627,5.373,12,12,12c6.627,0,12-5.373,12-12S21.627,3,15,3C8.373,3,3,8.373,3,15z"/>
</svg>
