<?xml version="1.0" encoding="utf-8"?>
<!-- Generator: Adobe Illustrator 16.0.4, SVG Export Plug-In . SVG Version: 6.00 Build 0)  -->
<!DOCTYPE svg PUBLIC "-//W3C//DTD SVG 1.1//EN" "http://www.w3.org/Graphics/SVG/1.1/DTD/svg11.dtd">
<svg version="1.1" id="logo-alternative" xmlns="http://www.w3.org/2000/svg" xmlns:xlink="http://www.w3.org/1999/xlink" x="0px"
	 y="0px" width="240px" height="90px" viewBox="0.807 3.475 240 90" enable-background="new 0.807 3.475 240 90"
	 xml:space="preserve">
<g id="circle">
	<polygon points="108.852,37.462 114.866,37.462 123.162,14.822 117.146,14.822 	"/>
	<path d="M132.354,6.388l-1.956,5.31c6,3.436,10.045,9.899,10.045,17.308c0,11.008-8.928,19.943-19.941,19.943
		c-11.014,0-19.941-8.933-19.941-19.943c0-11.012,8.927-19.943,19.941-19.943c1.602,0,3.156,0.195,4.648,0.553l1.942-5.281
		c-2.102-0.558-4.311-0.86-6.593-0.86c-14.1,0-25.53,11.429-25.53,25.531s11.432,25.531,25.53,25.531
		c14.103,0,25.531-11.43,25.531-25.531C146.033,19.187,140.488,10.663,132.354,6.388z"/>
	<polygon points="120.995,37.462 127.009,37.462 132.188,23.287 126.172,23.287 	"/>
</g>
<g id="text">
	<path d="M11.378,86.397v-8.016H4.712v8.016H0.5V67.125h4.211v7.402h6.666v-7.402h4.209v19.27h-4.209V86.397z"/>
	<path d="M25.085,86.711c-0.402,0-0.863-0.055-1.211-0.113l-1.081,2.885l-2.269-0.74l1.03-2.803
		c-1.893-1.055-2.918-3.195-2.918-6.307c0-4.736,3.023-7.73,7.097-7.73c0.273,0,0.624,0,0.973,0.059l0.973-2.66l2.294,0.711
		l-0.946,2.57c1.756,0.971,3.13,2.852,3.13,6.422C32.159,83.635,29.108,86.711,25.085,86.711z M24.765,75.467
		c-1.159,0.285-2.243,1.258-2.243,3.68c0,1.057,0.164,2.113,0.568,2.701l2.348-6.436C25.225,75.383,24.979,75.413,24.765,75.467z
		 M27.571,76.436l-2.455,6.686c0.24,0.029,0.511,0.049,0.779,0.029c1.298-0.211,2.402-1.377,2.402-3.865
		C28.298,78.036,28.057,77.18,27.571,76.436z"/>
	<path d="M40.256,93.475c-3.67,0-5.832-1.396-5.832-4.227c0-1.338,0.919-2.732,1.942-3.307c-0.779-0.393-1.292-1.199-1.292-2.197
		c0-1.143,0.701-2.227,1.644-2.621c-1.213-0.693-2.023-2.002-2.023-3.826c0-2.908,2.023-5.426,6.102-5.426
		c0.916,0,1.592,0.141,2.346,0.344h4.562v3.424h-1.537c0.241,0.293,0.376,0.742,0.376,1.252c0,3.086-1.94,5.086-5.804,5.086
		c-0.293,0-0.509-0.031-0.806-0.088c-0.326,0.17-0.487,0.488-0.487,0.711c0,0.602,0.407,0.686,1.917,0.744l1.81,0.086
		c2.886,0.117,4.612,1.373,4.612,4.227C47.786,90.737,44.872,93.475,40.256,93.475z M42.035,86.737l-2.125-0.053
		c-0.164-0.027-0.377,0-0.516-0.027c-0.594,0.512-0.946,1.143-0.946,1.773c0,1.053,0.893,1.76,2.407,1.76
		c1.915,0,2.885-0.852,2.885-1.969C43.738,87.43,43.279,86.797,42.035,86.737z M40.634,75.006c-1.267,0-1.995,0.838-1.995,1.998
		c0,1.264,0.674,2.029,2.023,2.029c1.241,0,1.998-0.74,1.998-1.969C42.66,75.844,41.983,75.006,40.634,75.006z"/>
	<path d="M53.24,86.711c-1.055,0-2.108-0.141-2.97-0.4l0.219-3.537c0.809,0.375,1.804,0.564,2.804,0.564
		c1.024,0,1.646-0.426,1.646-1.111c0-2.078-4.94-0.91-4.94-5.621c0-2.6,1.836-4.738,5.937-4.738c0.726,0,1.595,0.113,2.348,0.254
		l-0.132,3.398c-0.678-0.254-1.54-0.365-2.323-0.365c-1.051,0-1.537,0.428-1.537,1.082c0,1.889,5.021,1.09,5.021,5.613
		C59.313,84.858,56.881,86.711,53.24,86.711z"/>
	<path d="M70.187,86.397l-3.641-6.822v6.822h-4.103V65.559h4.103v12.359l3.398-5.705h5.049l-4.426,6.506l4.75,7.676h-5.129V86.397z"
		/>
	<path d="M82.819,86.711c-3.886,0-6.449-2.025-6.449-7.078c0-4.627,2.996-7.73,7.096-7.73c4.077,0,6.425,2.396,6.425,7.102
		C89.891,83.6,86.867,86.711,82.819,86.711z M83.196,75.608c-1.297,0-2.563,1.061-2.563,3.539c0,2.6,0.783,3.795,2.485,3.795
		c1.484,0,2.506-1.309,2.506-3.684C85.625,76.838,84.897,75.608,83.196,75.608z"/>
	<path d="M92.942,86.397V65.559h4.1v20.836h-4.1V86.397z"/>
	<path d="M112.297,80.403h-7.993c0.028,1.861,1.108,2.939,3.32,2.939c1.293,0,2.645-0.277,3.94-0.883l0.403,3.277
		c-1.539,0.66-3.371,0.977-5.019,0.977c-4.376,0-6.802-2.258-6.802-7.252c0-4.363,2.293-7.59,6.451-7.59
		c4.051,0,5.832,2.885,5.832,6.59C112.428,79.061,112.375,79.69,112.297,80.403z M106.49,75.043c-1.187,0-2.052,0.996-2.186,2.48
		h4.077C108.434,75.893,107.679,75.043,106.49,75.043z"/>
	<path d="M123.627,86.397v-9.014c0-1.145-0.301-1.826-1.24-1.826c-1.461,0-2.675,1.91-2.675,3.961v6.881h-4.101V72.215h3.834
		c0,0.541-0.027,1.541-0.167,2.227l0.032,0.023c0.833-1.488,2.319-2.562,4.453-2.562c2.99,0,3.967,2.053,3.967,4.51v9.984H123.627z"
		/>
	<path d="M140.227,70.555c-1.375,0-2.513-1.141-2.513-2.57c0-1.393,1.138-2.562,2.513-2.562c1.4,0,2.538,1.139,2.538,2.562
		C142.765,69.415,141.627,70.555,140.227,70.555z M138.176,86.397V72.215h4.104v14.182H138.176z"/>
	<path d="M160.255,86.766c-0.485,0-0.891-0.029-1.325-0.109l-0.893,2.775l-3.021-0.998l0.867-2.658
		c-2.729-1.516-4.003-4.713-4.003-8.768c0-6.275,4.029-10.244,9.048-10.244c0.351,0,0.702,0.035,1.08,0.09l0.833-2.631l3.055,0.979
		l-0.81,2.471c2.533,1.318,4.236,4.084,4.236,8.824C169.324,82.834,165.381,86.766,160.255,86.766z M159.475,70.905
		c-1.864,0.484-3.319,2.395-3.319,5.736c0,2.08,0.402,3.648,1.184,4.533l3.453-10.443C160.361,70.729,159.932,70.758,159.475,70.905
		z M163.679,72.043l-3.531,10.732c0.32,0.059,0.642,0.059,0.994,0.025c1.973-0.281,3.918-2.057,3.918-6.047
		C165.06,74.702,164.599,72.954,163.679,72.043z"/>
	<path d="M174.912,86.711c-1.053,0-2.103-0.141-2.969-0.4l0.215-3.537c0.81,0.375,1.807,0.564,2.804,0.564
		c1.031,0,1.649-0.426,1.649-1.111c0-2.078-4.941-0.91-4.941-5.621c0-2.6,1.839-4.738,5.939-4.738c0.729,0,1.593,0.113,2.348,0.254
		l-0.136,3.398c-0.675-0.254-1.535-0.365-2.317-0.365c-1.055,0-1.543,0.428-1.543,1.082c0,1.889,5.022,1.09,5.022,5.613
		C180.982,84.858,178.557,86.711,174.912,86.711z"/>
	<path d="M188.866,86.711c-3.103,0-4.103-1.088-4.103-4.564v-6.59h-2.021v-3.342h2.021V68.02l4.13-1.17v5.365h2.887v3.342h-2.887
		v5.592c0,1.451,0.352,1.936,1.375,1.936c0.486,0,0.945-0.078,1.404-0.197l0.243,3.398
		C190.997,86.543,189.835,86.711,188.866,86.711z"/>
	<path d="M203.063,69.075c-0.484-0.172-1.026-0.26-1.483-0.26c-1.244,0-1.813,0.627-1.813,2.146v1.254h2.752v3.342h-2.752v10.84
		h-4.099v-10.84h-2.051v-3.342h2.051v-1.229c0-3.766,1.59-5.678,5.506-5.678c0.697,0,1.463,0.061,2.157,0.227L203.063,69.075z"/>
	<path d="M210.508,86.711c-3.884,0-6.449-2.025-6.449-7.078c0-4.627,2.995-7.73,7.104-7.73c4.075,0,6.423,2.396,6.423,7.102
		C217.583,83.6,214.559,86.711,210.508,86.711z M210.891,75.608c-1.295,0-2.56,1.061-2.56,3.539c0,2.6,0.78,3.795,2.481,3.795
		c1.481,0,2.51-1.309,2.51-3.684C213.323,76.838,212.592,75.608,210.891,75.608z"/>
	<path d="M220.636,86.397V65.559h4.099v20.836h-4.099V86.397z"/>
	<path d="M236.716,86.397c0-0.602,0.031-1.312,0.144-2.021h-0.056c-0.73,1.361-2.077,2.361-4.078,2.361
		c-3.238,0-4.885-2.6-4.885-6.648c0-4.652,2.621-8.16,7.209-8.16c0.457,0,0.914,0.033,1.346,0.084v-6.451h4.104v20.836H236.716z
		 M236.396,75.557c-0.457-0.121-0.919-0.172-1.402-0.172c-1.595,0-2.812,1.08-2.812,4.248c0,2.373,0.597,3.49,1.865,3.49
		c1.378,0,2.349-1.717,2.349-4.088V75.557z"/>
</g>
</svg>
