<?xml version="1.0" encoding="utf-8"?>
<!-- Generator: Adobe Illustrator 16.0.4, SVG Export Plug-In . SVG Version: 6.00 Build 0)  -->
<!DOCTYPE svg PUBLIC "-//W3C//DTD SVG 1.1//EN" "http://www.w3.org/Graphics/SVG/1.1/DTD/svg11.dtd">
<svg version="1.1" id="Layer_1" xmlns="http://www.w3.org/2000/svg" xmlns:xlink="http://www.w3.org/1999/xlink" x="0px" y="0px"
	 width="48px" height="48px" viewBox="0 0 48 48" enable-background="new 0 0 48 48" xml:space="preserve">
<path d="M42.856,24h-5.143v-5.143h5.143V24z M42.856,34.286h-5.143v-5.143h5.143V34.286z M42.856,15.428V8.572h-3.428v6.856h-5.143
	V48h13.713V15.428H42.856z M8.571,17.143H3.428V12h5.143V17.143z M8.571,39.429H3.428v-5.143h5.143V39.429z M12,0H8.571v8.572H5.143
	V0H1.714v8.572H0V48h13.714V8.572H12V0z M18.856,24H24v5.144h-5.143V24z M18.856,13.714H24v5.143h-5.143V13.714z M18.856,3.429H24
	v5.143h-5.143V3.429z M15.428,48H32.57V0H15.428V48z"/>
</svg>
