<?xml version="1.0" encoding="utf-8"?>
<!-- Generator: Adobe Illustrator 16.0.4, SVG Export Plug-In . SVG Version: 6.00 Build 0)  -->
<!DOCTYPE svg PUBLIC "-//W3C//DTD SVG 1.1//EN" "http://www.w3.org/Graphics/SVG/1.1/DTD/svg11.dtd">
<svg version="1.1" id="icon-nav-site" xmlns="http://www.w3.org/2000/svg" xmlns:xlink="http://www.w3.org/1999/xlink" x="0px"
	 y="0px" width="48px" height="48px" viewBox="0 0 48 48" enable-background="new 0 0 48 48" xml:space="preserve">
<path class="item" id="icon-nav-site-line1_2_" d="M45.726,8.243H2.03C0.909,8.243,0,7.334,0,6.213s0.909-2.03,2.03-2.03h43.695
	c1.119,0,2.03,0.909,2.03,2.03S46.845,8.243,45.726,8.243z"/>
<path class="item" id="icon-nav-site-line1_1_" d="M45.726,25.792H2.03c-1.121,0-2.03-0.909-2.03-2.031c0-1.121,0.909-2.03,2.03-2.03h43.695
	c1.119,0,2.03,0.909,2.03,2.03C47.756,24.883,46.845,25.792,45.726,25.792z"/>
<path class="item" id="icon-nav-site-line1" d="M45.726,43.817H2.03c-1.121,0-2.03-0.911-2.03-2.03c0-1.122,0.909-2.03,2.03-2.03h43.695
	c1.119,0,2.03,0.908,2.03,2.03C47.756,42.906,46.845,43.817,45.726,43.817z"/>
</svg>
