<?xml version="1.0" encoding="utf-8"?>
<!-- Generator: Adobe Illustrator 16.0.4, SVG Export Plug-In . SVG Version: 6.00 Build 0)  -->
<!DOCTYPE svg PUBLIC "-//W3C//DTD SVG 1.1//EN" "http://www.w3.org/Graphics/SVG/1.1/DTD/svg11.dtd">
<svg version="1.1" id="icon-calendar" xmlns="http://www.w3.org/2000/svg" xmlns:xlink="http://www.w3.org/1999/xlink" x="0px"
	 y="0px" width="30px" height="30px" viewBox="0 0 30 30" enable-background="new 0 0 30 30" xml:space="preserve">
<path d="M25.669,16.904h-5.008v-5.009h5.008V16.904z M25.669,25.669h-5.008v-5.008h5.008V25.669z M17.53,16.904h-5.009v-5.009h5.009
	V16.904z M17.53,25.669h-5.009v-5.008h5.009V25.669z M9.391,16.904H4.383v-5.009h5.008V16.904z M9.391,25.669H4.383v-5.008h5.008
	V25.669z M28.174,0h-2.505v3.756c0,1.043-0.834,1.878-1.878,1.878S21.913,4.8,21.913,3.756V0H8.139v3.756
	c0,1.043-0.835,1.878-1.878,1.878S4.383,4.8,4.383,3.756V0H1.878C0.835,0,0,0.835,0,1.878v26.295c0,1.044,0.835,1.878,1.878,1.878
	h26.295c1.044,0,1.878-0.834,1.878-1.878V1.878C30.052,0.835,29.218,0,28.174,0z"/>
</svg>
