<?xml version="1.0" encoding="utf-8"?>
<!-- Generator: Adobe Illustrator 16.0.4, SVG Export Plug-In . SVG Version: 6.00 Build 0)  -->
<!DOCTYPE svg PUBLIC "-//W3C//DTD SVG 1.1//EN" "http://www.w3.org/Graphics/SVG/1.1/DTD/svg11.dtd">
<svg version="1.1" id="icon-news" xmlns="http://www.w3.org/2000/svg" xmlns:xlink="http://www.w3.org/1999/xlink" x="0px" y="0px"
	 width="30px" height="30px" viewBox="0 0 30 30" enable-background="new 0 0 30 30" xml:space="preserve">
<path fill="#FFFFFF" d="M27.412,11.598H13.706V4.217h13.706V11.598z M27.412,14.761H5.271v-1.055h22.141V14.761z M27.412,17.924
	H5.271v-1.055h22.141V17.924z M27.412,21.087H5.271v-1.054h22.141V21.087z M27.412,24.25H5.271v-1.054h22.141V24.25z M5.271,10.543
	h6.325v1.055H5.271V10.543z M5.271,7.381h6.325v1.054H5.271V7.381z M5.271,4.217h6.325v1.055H5.271V4.217z M3.162,0v24.514
	c0,0.296-0.231,0.526-0.526,0.526c-0.297,0-0.528-0.23-0.528-0.526V3.164H0v21.35c0,2.735,2.273,5.008,5.007,5.008h19.505
	c2.701,0,5.009-2.272,5.009-5.008V0H3.162z"/>
</svg>
