<?xml version="1.0" encoding="utf-8"?>
<!-- Generator: Adobe Illustrator 16.0.4, SVG Export Plug-In . SVG Version: 6.00 Build 0)  -->
<!DOCTYPE svg PUBLIC "-//W3C//DTD SVG 1.1//EN" "http://www.w3.org/Graphics/SVG/1.1/DTD/svg11.dtd">
<svg version="1.1" id="icon-research" xmlns="http://www.w3.org/2000/svg" xmlns:xlink="http://www.w3.org/1999/xlink" x="0px"
	 y="0px" width="30px" height="30px" viewBox="0 0 30 30" enable-background="new 0 0 30 30" xml:space="preserve">
<path fill="#FFFFFF" d="M7.712,24.97c-0.599,0.432-3.091,1.529-5.086,2.193c0.665-1.994,1.794-4.454,2.193-5.053L16.588,9.844
	l3.391,3.391L7.712,24.97z M13.43,6.686l1.596,1.595L3.191,20.614C2.526,21.312,0.499,25.934,0,28.327l1.462,1.462
	c2.394-0.498,7.048-2.526,7.712-3.19l12.366-11.802l1.63,1.597l3.19-3.192l-9.74-9.707L13.43,6.686z M28.355,1.467
	c-1.495-1.695-4.354-2.028-5.95-0.433l-3.19,3.191l6.383,6.383l3.224-3.191C30.417,5.821,29.886,3.162,28.355,1.467z"/>
</svg>
