<?xml version="1.0" encoding="utf-8"?>
<!-- Generator: Adobe Illustrator 16.0.4, SVG Export Plug-In . SVG Version: 6.00 Build 0)  -->
<!DOCTYPE svg PUBLIC "-//W3C//DTD SVG 1.1//EN" "http://www.w3.org/Graphics/SVG/1.1/DTD/svg11.dtd">
<svg version="1.1" id="Layer_1" xmlns="http://www.w3.org/2000/svg" xmlns:xlink="http://www.w3.org/1999/xlink" x="0px" y="0px"
	 width="48px" height="48px" viewBox="0 0 48 48" enable-background="new 0 0 48 48" xml:space="preserve">
<path d="M41,15.375H6.833V5.125H41V15.375z M41,25.625h-5.126V20.5H41V25.625z M41,42.709h-5.126V29.042H41V42.709z M32.458,25.625
	h-6.833V20.5h6.833V25.625z M32.458,34.166h-6.833v-5.124h6.833V34.166z M32.458,42.709h-6.833v-5.126h6.833V42.709z M22.208,25.625
	h-6.833V20.5h6.833V25.625z M22.208,34.166h-6.833v-5.124h6.833V34.166z M22.208,42.709h-6.833v-5.126h6.833V42.709z M11.958,25.625
	H6.833V20.5h5.125V25.625z M11.958,34.166H6.833v-5.124h5.125V34.166z M11.958,42.709H6.833v-5.126h5.125V42.709z M42.709,0H5.125
	C1.708,0,0,1.708,0,5.125v37.584c0,3.416,1.708,5.124,5.125,5.124h37.584c3.416,0,5.124-1.708,5.124-5.124V5.125
	C47.833,1.708,46.125,0,42.709,0z"/>
</svg>
