<?xml version="1.0" encoding="utf-8"?>
<svg version="1.1" id="home" xmlns="http://www.w3.org/2000/svg" xmlns:xlink="http://www.w3.org/1999/xlink" x="0px" y="0px"
   viewBox="0 0 32 32" enable-background="new 0 0 32 32" xml:space="preserve">
<path fill="#fff" class="path" d="M20,2l3,3V2h4v7l3,3h-8.5l-10-10H20z M30,30h-8V13h8V30z M21,30H2V13l8.8-10.7L21,12.5V30z M31.4,11.1L29,8.7V2
  c0-1.1-0.9-2-2-2h-4c-0.6,0-1.1,0.3-1.5,0.7l-0.1-0.1C21,0.2,20.5,0,20,0c0,0-8.4,0-8.4,0c-0.6,0-1.1,0.3-1.5,0.8L0.5,12.3
  C0.1,12.7,0,13.1,0,13.6V30c0,1.1,0.9,2,2,2h28c1.1,0,2-0.9,2-2V12.5C32,12.5,31.9,11.6,31.4,11.1z M7,15h3v-3H7V15z M11,19h3v-3h-3
  V19z M11,15h3v-3h-3V15z M7,19h3v-3H7V19z"/>
</svg>
