<?xml version="1.0" encoding="utf-8"?>
<!DOCTYPE svg PUBLIC "-//W3C//DTD SVG 1.1//EN" "http://www.w3.org/Graphics/SVG/1.1/DTD/svg11.dtd">
<svg version="1.1" id="icon-nav-page" xmlns="http://www.w3.org/2000/svg" xmlns:xlink="http://www.w3.org/1999/xlink" x="0px" y="0px"
	 width="48px" height="48px" viewBox="0 0 48 48" enable-background="new 0 0 48 48" xml:space="preserve">
<path class="item" d="M48.008,9.993V3.991c0-0.556-0.444-1-1-1H12.996c-0.556,0-1,0.445-1,1v6.002c0,0.556,0.445,1,1,1h34.012
	C47.563,10.993,48.008,10.548,48.008,9.993z M48.008,26.998v-6.001c0-0.556-0.444-1-1-1H12.996c-0.556,0-1,0.445-1,1v6.001
	c0,0.556,0.445,1.001,1,1.001h34.012C47.563,27.999,48.008,27.554,48.008,26.998z M48.008,44.005v-6.003
	c0-0.556-0.444-1.001-1-1.001H12.996c-0.556,0-1,0.445-1,1.001v6.003c0,0.555,0.445,1,1,1h34.012
	C47.563,45.005,48.008,44.56,48.008,44.005z M7.994,9.993V3.991c0-0.556-0.445-1-1-1H0.992c-0.556,0-1,0.445-1,1v6.002
	c0,0.556,0.445,1,1,1h6.002C7.549,10.993,7.994,10.548,7.994,9.993z M7.994,26.998v-6.001c0-0.556-0.445-1-1-1H0.992
	c-0.556,0-1,0.445-1,1v6.001c0,0.556,0.445,1.001,1,1.001h6.002C7.549,27.999,7.994,27.554,7.994,26.998z M7.994,44.005v-6.003
	c0-0.556-0.445-1.001-1-1.001H0.992c-0.556,0-1,0.445-1,1.001v6.003c0,0.555,0.445,1,1,1h6.002
	C7.549,45.005,7.994,44.56,7.994,44.005z"/>
</svg>
