<?xml version="1.0" encoding="utf-8"?>
<svg version="1.1" id="plus" xmlns="http://www.w3.org/2000/svg" xmlns:xlink="http://www.w3.org/1999/xlink" x="0px"
	 y="0px" viewBox="-185 274.3 48 48" enable-background="new -185 274.3 48 48" xml:space="preserve">
<path class="item" d="M-147.2,295.3l-10.8,0l0-10.8c0-0.1-0.1-0.3-0.2-0.4c-0.1-0.1-0.2-0.1-0.4-0.2l-4.9,0c-0.3,0-0.5,0.2-0.5,0.5v10.8l-10.8,0
	c-0.3,0-0.5,0.2-0.5,0.5l0,4.9c0,0.3,0.2,0.5,0.5,0.5l10.8,0l0,10.8c0,0.1,0.1,0.3,0.2,0.4c0.1,0.1,0.2,0.1,0.4,0.2l4.9,0
	c0.3,0,0.5-0.2,0.5-0.5v-10.8l10.8,0c0.3,0,0.5-0.2,0.5-0.5l0-4.9C-146.7,295.5-147,295.3-147.2,295.3z"/>
</svg>
