<?xml version="1.0" encoding="utf-8"?>
<!-- Generator: Adobe Illustrator 16.0.4, SVG Export Plug-In . SVG Version: 6.00 Build 0)  -->
<!DOCTYPE svg PUBLIC "-//W3C//DTD SVG 1.1//EN" "http://www.w3.org/Graphics/SVG/1.1/DTD/svg11.dtd">
<svg version="1.1" id="icon-print" xmlns="http://www.w3.org/2000/svg" xmlns:xlink="http://www.w3.org/1999/xlink" x="0px" y="0px"
	 width="48px" height="48px" viewBox="0 0 48 48" enable-background="new 0 0 48 48" xml:space="preserve">
<path id="icon-print-icon" class="item" d="M14.578,17.151c-1.447,0-2.572-1.125-2.572-2.573c0-1.394,1.125-2.572,2.572-2.572
	c1.394,0,2.573,1.179,2.573,2.572C17.151,16.025,15.972,17.151,14.578,17.151z M7.718,17.151c-1.447,0-2.572-1.125-2.572-2.573
	c0-1.394,1.125-2.572,2.572-2.572c1.394,0,2.573,1.179,2.573,2.572C10.291,16.025,9.111,17.151,7.718,17.151z M0,8.575v20.581h6.86
	v-6.86h34.302v6.86h6.86V8.575H0z M37.732,0H10.291L8.575,6.86h30.872L37.732,0z M13.721,32.587h20.581v1.715H13.721V32.587z
	 M13.721,27.441h20.581v1.715H13.721V27.441z M8.575,48.022h20.581v-10.29h10.291V24.011H8.575V48.022z M30.872,48.022l8.575-8.575
	h-8.575V48.022z"/>
</svg>
