<?xml version="1.0" encoding="utf-8"?>
<!-- Generator: Adobe Illustrator 16.0.4, SVG Export Plug-In . SVG Version: 6.00 Build 0)  -->
<!DOCTYPE svg PUBLIC "-//W3C//DTD SVG 1.1//EN" "http://www.w3.org/Graphics/SVG/1.1/DTD/svg11.dtd">
<svg version="1.1" id="Layer_1" xmlns="http://www.w3.org/2000/svg" xmlns:xlink="http://www.w3.org/1999/xlink" x="0px" y="0px"
	 width="48px" height="48px" viewBox="0 0 48 48" enable-background="new 0 0 48 48" xml:space="preserve">
<path d="M41.571,24c-0.857,0-1.554,1.071-1.554,1.929c0,0.268,0.161,0.91,0.161,0.91c0.268,0.482,0.427,1.179,0.427,1.769
	c0,2.196-1.819,4.071-4.017,4.071c-2.196,0-4.018-1.769-4.018-3.965c0-0.643,0.161-1.231,0.429-1.768c0,0,0.16-0.804,0.16-1.018
	c0-0.857-0.696-1.929-1.553-1.929h-5.894v7.714c0,0.857-0.375,1.554-1.232,1.554c-0.214,0-0.482-0.16-0.536-0.16h0.107
	c-0.536-0.215-1.072-0.375-1.714-0.375c-2.197,0-3.964,1.768-3.964,3.964s1.768,4.018,4.018,4.018c0.589,0,1.179-0.16,1.714-0.428
	c0,0,0.107-0.161,0.375-0.161c0.857,0,1.232,0.696,1.232,1.554V48H48V24H41.571z M6.857,20.411c0-3.214,2.571-5.625,5.786-5.625
	c3.16,0,5.731,2.356,5.731,5.518c0,0.75-0.161,1.982-0.428,1.982H24v-4.553c0-0.858,1.018-1.555,1.875-1.555
	c0.214,0,0.804,0.107,0.804,0.107c0.535,0.268,1.231,0.429,1.821,0.429c2.25,0,4.071-1.768,4.071-3.964
	c0-2.25-1.768-4.018-3.964-4.018c-0.644,0-1.179,0.161-1.715,0.375c0,0-0.75,0.214-1.018,0.214C25.018,9.322,24,8.625,24,7.769V0H0
	v22.285h7.286C7.019,22.286,6.857,21.161,6.857,20.411z M22.071,42.48c-3.161,0-5.463-2.569-5.463-5.784
	c0-3.161,2.303-5.786,5.463-5.786c0.75,0,1.929,0.161,1.929,0.482V24h-6.375c-0.911,0-1.553-0.321-1.553-1.179
	c0-0.268,0.106-0.536,0.106-0.536c0.269-0.536,0.43-1.018,0.43-1.661c0-2.197-1.769-3.964-3.964-3.964
	c-2.25,0-4.018,1.822-4.018,4.018c0,0.643,0.161,1.232,0.375,1.714c0,0,0.214,0.161,0.214,0.429C9.214,23.679,8.519,24,7.661,24H0
	v24h24v-6C24,42.321,22.821,42.48,22.071,42.48z"/>
</svg>
