<?xml version="1.0" encoding="utf-8"?>
<!-- Generator: Adobe Illustrator 16.0.4, SVG Export Plug-In . SVG Version: 6.00 Build 0)  -->
<!DOCTYPE svg PUBLIC "-//W3C//DTD SVG 1.1//EN" "http://www.w3.org/Graphics/SVG/1.1/DTD/svg11.dtd">
<svg version="1.1" id="icon-search" xmlns="http://www.w3.org/2000/svg" xmlns:xlink="http://www.w3.org/1999/xlink" x="0px"
	 y="0px" width="48px" height="48px" viewBox="0 0 48 48" enable-background="new 0 0 48 48" xml:space="preserve">
<path id="_x2D_icon-search-symbol" d="M29.845,29.845c-6.577,0-11.938-5.361-11.938-11.938c0-6.577,5.361-11.938,11.938-11.938
	c6.577,0,11.938,5.361,11.938,11.938C41.783,24.484,36.422,29.845,29.845,29.845z M29.845,0c-9.893,0-17.907,8.014-17.907,17.907
	c0,3.538,0.995,6.798,2.763,9.562L1.161,40.953c-1.548,1.548-1.548,4.091,0,5.638c0.773,0.774,1.769,1.161,2.818,1.161
	c0.995,0,2.045-0.387,2.819-1.161l13.486-13.54c2.763,1.769,6.024,2.763,9.561,2.763c9.894,0,17.907-8.014,17.907-17.907
	C47.752,8.014,39.738,0,29.845,0z"/>
</svg>
