<?xml version="1.0" encoding="utf-8"?>
<!-- Generator: Adobe Illustrator 16.0.4, SVG Export Plug-In . SVG Version: 6.00 Build 0)  -->
<!DOCTYPE svg PUBLIC "-//W3C//DTD SVG 1.1//EN" "http://www.w3.org/Graphics/SVG/1.1/DTD/svg11.dtd">
<svg version="1.1" id="icon-twitter" xmlns="http://www.w3.org/2000/svg" xmlns:xlink="http://www.w3.org/1999/xlink" x="0px"
	 y="0px" width="48px" height="48px" viewBox="0 0 48 48" enable-background="new 0 0 48 48" xml:space="preserve">
<linearGradient id="icon-twitter-bg_1_" gradientUnits="userSpaceOnUse" x1="23.9995" y1="0" x2="23.9995" y2="48.0005">
	<stop  offset="0" style="stop-color:#4BD0EF"/>
	<stop  offset="1" style="stop-color:#29AAE1"/>
</linearGradient>
<rect id="icon-twitter-bg" fill="url(#icon-twitter-bg_1_)" width="48" height="48"/>
<path display="none" fill="#29AAE1" d="M40.23,13.413c-1.119,0.497-2.322,0.833-3.588,0.984c1.291-0.774,2.28-1.998,2.748-3.457
	c-1.207,0.716-2.543,1.236-3.969,1.516c-1.139-1.214-2.763-1.972-4.561-1.972c-3.448,0-6.245,2.796-6.245,6.247
	c0,0.49,0.055,0.966,0.161,1.424c-5.192-0.261-9.795-2.749-12.876-6.528c-0.538,0.923-0.846,1.996-0.846,3.141
	c0,2.167,1.103,4.08,2.779,5.199c-1.024-0.032-1.987-0.313-2.83-0.781c0,0.026,0,0.053,0,0.079c0,3.026,2.153,5.551,5.011,6.125
	c-0.525,0.143-1.076,0.219-1.646,0.219c-0.403,0-0.794-0.039-1.176-0.11c0.795,2.479,3.102,4.287,5.834,4.338
	c-2.137,1.675-4.832,2.675-7.757,2.675c-0.504,0-1.002-0.029-1.491-0.089c2.765,1.772,6.048,2.808,9.577,2.808
	c11.49,0,17.773-9.519,17.773-17.773c0-0.271-0.006-0.54-0.02-0.809C38.334,15.766,39.395,14.666,40.23,13.413z"/>
<path id="icon-twitter-bird" fill="#FFFFFF" d="M40.23,14.739c-1.119,0.497-2.322,0.833-3.588,0.984
	c1.291-0.773,2.28-1.998,2.748-3.456c-1.207,0.716-2.543,1.236-3.969,1.516c-1.139-1.214-2.763-1.972-4.561-1.972
	c-3.448,0-6.245,2.796-6.245,6.247c0,0.489,0.055,0.966,0.161,1.424c-5.192-0.261-9.795-2.748-12.876-6.527
	c-0.538,0.923-0.846,1.996-0.846,3.141c0,2.167,1.103,4.079,2.779,5.199c-1.024-0.032-1.987-0.313-2.83-0.781
	c0,0.026,0,0.052,0,0.079c0,3.027,2.153,5.552,5.011,6.125c-0.525,0.144-1.076,0.22-1.646,0.22c-0.403,0-0.794-0.039-1.176-0.11
	c0.795,2.481,3.102,4.287,5.834,4.338c-2.137,1.676-4.832,2.675-7.757,2.675c-0.504,0-1.002-0.029-1.491-0.089
	c2.765,1.772,6.048,2.808,9.577,2.808c11.49,0,17.773-9.519,17.773-17.773c0-0.271-0.006-0.54-0.02-0.808
	C38.334,17.092,39.395,15.992,40.23,14.739z"/>
</svg>
