<?xml version="1.0" encoding="utf-8"?>
<!-- Generator: Adobe Illustrator 16.0.4, SVG Export Plug-In . SVG Version: 6.00 Build 0)  -->
<!DOCTYPE svg PUBLIC "-//W3C//DTD SVG 1.1//EN" "http://www.w3.org/Graphics/SVG/1.1/DTD/svg11.dtd">
<svg version="1.1" id="icon-universal-access" xmlns="http://www.w3.org/2000/svg" xmlns:xlink="http://www.w3.org/1999/xlink"
	 x="0px" y="0px" width="48px" height="48px" viewBox="0 0 48 48" enable-background="new 0 0 48 48" xml:space="preserve">
<path d="M23.862,47.725c-3.29,0-6.385-0.627-9.286-1.883c-2.899-1.256-5.427-2.96-7.581-5.113c-2.154-2.154-3.859-4.682-5.113-7.581
	C0.627,30.247,0,27.152,0,23.862c0-3.29,0.627-6.376,1.883-9.26c1.254-2.883,2.959-5.41,5.113-7.581
	c2.153-2.171,4.681-3.884,7.581-5.139C17.477,0.627,20.572,0,23.862,0c3.291,0,6.377,0.627,9.26,1.883
	c2.884,1.254,5.41,2.967,7.581,5.139c2.171,2.171,3.884,4.698,5.139,7.581c1.256,2.884,1.883,5.97,1.883,9.26
	c0,3.291-0.627,6.385-1.883,9.286c-1.255,2.899-2.968,5.427-5.139,7.581c-2.171,2.153-4.698,3.858-7.581,5.113
	C30.239,47.098,27.152,47.725,23.862,47.725z M23.862,3.205c-2.849,0-5.529,0.542-8.039,1.628c-2.51,1.085-4.698,2.561-6.563,4.427
	c-1.866,1.865-3.341,4.053-4.427,6.563c-1.085,2.51-1.628,5.19-1.628,8.039s0.542,5.529,1.628,8.039
	c1.085,2.511,2.561,4.699,4.427,6.563c1.865,1.866,4.053,3.342,6.563,4.427c2.51,1.085,5.19,1.628,8.039,1.628
	s5.529-0.543,8.039-1.628c2.511-1.085,4.699-2.561,6.563-4.427c1.866-1.864,3.342-4.053,4.427-6.563
	c1.085-2.51,1.628-5.189,1.628-8.039s-0.543-5.529-1.628-8.039c-1.085-2.51-2.561-4.698-4.427-6.563
	C36.6,7.394,34.411,5.918,31.9,4.833C29.391,3.748,26.711,3.205,23.862,3.205z M27.372,9.463c0-0.984-0.338-1.815-1.018-2.493
	c-0.678-0.679-1.509-1.018-2.493-1.018c-0.983,0-1.806,0.339-2.467,1.018c-0.662,0.678-0.992,1.509-0.992,2.493
	c0,0.983,0.331,1.814,0.992,2.493c0.661,0.678,1.484,1.018,2.467,1.018c0.984,0,1.815-0.339,2.493-1.018
	C27.034,11.278,27.372,10.447,27.372,9.463z M36.684,21.521l-5.037-4.376c-0.17-0.169-0.364-0.356-0.586-0.56
	c-0.22-0.204-0.448-0.407-0.687-0.61c-0.339-0.305-0.652-0.594-0.941-0.865c-0.287-0.271-0.517-0.458-0.687-0.56
	c-0.373-0.271-0.721-0.449-1.043-0.534c-0.322-0.084-0.721-0.127-1.196-0.127h-5.291c-0.475,0-0.874,0.043-1.196,0.127
	c-0.322,0.085-0.67,0.246-1.043,0.483c-0.169,0.136-0.398,0.339-0.687,0.61c-0.288,0.271-0.602,0.56-0.941,0.865
	c-0.237,0.204-0.466,0.407-0.687,0.61c-0.22,0.204-0.416,0.391-0.585,0.56l-5.037,4.376c-0.305,0.271-0.492,0.628-0.56,1.068
	c0,0.441,0.135,0.831,0.407,1.17c0.271,0.306,0.636,0.475,1.094,0.509c0.458,0.034,0.839-0.084,1.145-0.356
	c0.136-0.102,0.441-0.364,0.916-0.788c0.475-0.424,1.018-0.899,1.628-1.425c0.61-0.526,1.238-1.06,1.882-1.603
	c0.645-0.543,1.188-1,1.628-1.374c0.305-0.271,0.551-0.398,0.738-0.381c0.187,0.017,0.28,0.263,0.28,0.738v2.951
	c0,1.255-0.034,2.23-0.102,2.926c-0.067,0.695-0.119,1.077-0.152,1.145l-2.29,13.076c-0.102,0.577,0,1.068,0.306,1.476
	c0.271,0.441,0.696,0.712,1.272,0.813c0.543,0.103,1.035-0.009,1.476-0.33c0.44-0.322,0.712-0.738,0.814-1.247l0.127-0.737
	c0,0,0.102-0.618,0.306-1.857c0.203-1.238,0.339-2.043,0.407-2.417c0.068-0.372,0.212-1.195,0.433-2.468
	c0.221-1.271,0.348-1.959,0.382-2.061l0.229-1.145c0.034-0.135,0.051-0.246,0.051-0.331c0-0.084,0.017-0.178,0.051-0.279
	c0.068-0.373,0.187-0.551,0.356-0.534c0.169,0.018,0.289,0.195,0.356,0.534c0.034,0.102,0.051,0.195,0.051,0.279
	c0,0.085,0.017,0.196,0.051,0.331l0.229,1.145c0,0,0.127,0.688,0.381,2.061c0.255,1.374,0.399,2.197,0.433,2.468
	c0.034,0.272,0.17,1.077,0.407,2.417c0.237,1.341,0.339,1.959,0.305,1.857l0.128,0.737c0.068,0.475,0.288,0.865,0.661,1.171
	c0.374,0.305,0.798,0.458,1.272,0.458c0.17,0,0.288-0.017,0.355-0.052c0.577-0.102,1.001-0.372,1.272-0.813
	c0.305-0.407,0.407-0.898,0.305-1.476l-2.289-13.025c0-0.102-0.042-0.5-0.127-1.195s-0.128-1.671-0.128-2.926l-0.051-3.002
	c0-0.474,0.103-0.712,0.306-0.712s0.458,0.136,0.763,0.407v-0.051c0.442,0.407,0.984,0.882,1.629,1.425
	c0.645,0.542,1.271,1.077,1.883,1.603c0.61,0.526,1.153,1,1.628,1.425c0.476,0.424,0.78,0.687,0.916,0.788
	c0.305,0.272,0.687,0.399,1.145,0.382s0.823-0.195,1.094-0.534c0.272-0.339,0.399-0.729,0.382-1.17
	C37.201,22.149,37.022,21.793,36.684,21.521z"/>
</svg>
