<?xml version="1.0" encoding="utf-8"?>
<!-- Generator: Adobe Illustrator 16.0.4, SVG Export Plug-In . SVG Version: 6.00 Build 0)  -->
<!DOCTYPE svg PUBLIC "-//W3C//DTD SVG 1.1//EN" "http://www.w3.org/Graphics/SVG/1.1/DTD/svg11.dtd">
<svg version="1.1" id="icon-person" xmlns="http://www.w3.org/2000/svg" xmlns:xlink="http://www.w3.org/1999/xlink" x="0px"
	 y="0px" width="48px" height="48px" viewBox="0 0 48 48" enable-background="new 0 0 48 48" xml:space="preserve">
<path class="item" d="M34.999,39.903c-2.545-0.654-4.726-2.025-4.726-2.025l-0.845-3.132c0-0.135-0.133-2.123-0.133-2.123
	c1.889-0.635,1.694-4.372,1.694-4.372c1.198,0.663,1.979-3.244,1.979-3.244c2.03-5.064-0.703-3.857-0.703-3.857
	c0.675-3.074,1.505-2.985,1.505-6.761c0-3.774-5.731-7.078-9.557-7.078c-3.829,0-9.25,3.411-9.25,7.078s1.03,6.761,1.03,6.761
	c-3.493,0-0.06,2.742,0,4.339c0.087,2.357,1.53,2.824,1.53,2.824c0.091,3.887,1.055,4.398,1.055,4.398c0.36,2.441,0,2.23,0,2.23
	l-0.619,2.859c0,0-1.621,1.17-3.619,2.041c-1.236,0.539-2.574,0.137-3.832,0.639c-4.499-4.019-7.334-9.849-7.334-16.33
	c0-12.092,8.907-20.977,21.035-20.977c12.126,0,21.033,8.886,21.033,20.977c0.002,6.215-2.605,11.827-6.784,15.824
	C38.459,39.976,36.136,40.197,34.999,39.903z M0,23.812c0,13.15,10.662,23.812,23.812,23.812s23.812-10.662,23.812-23.812
	S36.963,0,23.812,0S0,10.662,0,23.812z"/>
</svg>
